<?xml version="1.0" encoding="UTF-8"?>
<svg xmlns="http://www.w3.org/2000/svg" viewBox="0 0 1000 1000" width="1000" height="1000">
  <g shape-rendering="geometricPrecision" stroke="none">
    <path d="M 498.342,120.004 L 497.818,0.005 A 500.000,500.000 0 0 1 510.907,0.119 L 508.290,120.090 A 380.000,380.000 0 0 0 498.342,120.004 Z" fill="#FF0200"/>
    <path d="M 504.974,120.033 L 506.545,0.043 A 500.000,500.000 0 0 1 519.630,0.385 L 514.919,120.293 A 380.000,380.000 0 0 0 504.974,120.033 Z" fill="#FF0600"/>
    <path d="M 511.605,120.177 L 515.269,0.233 A 500.000,500.000 0 0 1 528.346,0.804 L 521.543,120.611 A 380.000,380.000 0 0 0 511.605,120.177 Z" fill="#FF0A00"/>
    <path d="M 518.232,120.438 L 523.989,0.576 A 500.000,500.000 0 0 1 537.054,1.375 L 528.161,121.045 A 380.000,380.000 0 0 0 518.232,120.438 Z" fill="#FF0E00"/>
    <path d="M 524.853,120.814 L 532.702,1.071 A 500.000,500.000 0 0 1 545.751,2.098 L 534.771,121.594 A 380.000,380.000 0 0 0 524.853,120.814 Z" fill="#FF1300"/>
    <path d="M 531.467,121.305 L 541.404,1.717 A 500.000,500.000 0 0 1 554.433,2.972 L 541.369,122.259 A 380.000,380.000 0 0 0 531.467,121.305 Z" fill="#FF1700"/>
    <path d="M 538.071,121.912 L 550.094,2.516 A 500.000,500.000 0 0 1 563.099,3.998 L 547.956,123.038 A 380.000,380.000 0 0 0 538.071,121.912 Z" fill="#FF1B00"/>
    <path d="M 544.664,122.634 L 558.769,3.466 A 500.000,500.000 0 0 1 571.746,5.174 L 554.527,123.932 A 380.000,380.000 0 0 0 544.664,122.634 Z" fill="#FF1F00"/>
    <path d="M 551.243,123.471 L 567.425,4.567 A 500.000,500.000 0 0 1 580.371,6.502 L 561.082,124.941 A 380.000,380.000 0 0 0 551.243,123.471 Z" fill="#FF2400"/>
    <path d="M 557.807,124.423 L 576.062,5.819 A 500.000,500.000 0 0 1 588.972,7.980 L 567.619,126.065 A 380.000,380.000 0 0 0 557.807,124.423 Z" fill="#FF2800"/>
    <path d="M 564.353,125.489 L 584.675,7.222 A 500.000,500.000 0 0 1 597.545,9.607 L 574.134,127.302 A 380.000,380.000 0 0 0 564.353,125.489 Z" fill="#FF2C00"/>
    <path d="M 570.879,126.669 L 593.262,8.775 A 500.000,500.000 0 0 1 606.089,11.384 L 580.628,128.652 A 380.000,380.000 0 0 0 570.879,126.669 Z" fill="#FF3000"/>
    <path d="M 577.384,127.963 L 601.821,10.477 A 500.000,500.000 0 0 1 614.600,13.310 L 587.096,130.116 A 380.000,380.000 0 0 0 577.384,127.963 Z" fill="#FF3500"/>
    <path d="M 583.865,129.370 L 610.349,12.329 A 500.000,500.000 0 0 1 623.077,15.385 L 593.538,131.692 A 380.000,380.000 0 0 0 583.865,129.370 Z" fill="#FF3900"/>
    <path d="M 590.321,130.890 L 618.843,14.329 A 500.000,500.000 0 0 1 631.516,17.606 L 599.952,133.381 A 380.000,380.000 0 0 0 590.321,130.890 Z" fill="#FF3D00"/>
    <path d="M 596.749,132.523 L 627.301,16.477 A 500.000,500.000 0 0 1 639.915,19.975 L 606.335,135.181 A 380.000,380.000 0 0 0 596.749,132.523 Z" fill="#FF4100"/>
    <path d="M 603.147,134.267 L 635.720,18.772 A 500.000,500.000 0 0 1 648.271,22.490 L 612.686,137.092 A 380.000,380.000 0 0 0 603.147,134.267 Z" fill="#FF4600"/>
    <path d="M 609.515,136.123 L 644.098,21.214 A 500.000,500.000 0 0 1 656.582,25.150 L 619.002,139.114 A 380.000,380.000 0 0 0 609.515,136.123 Z" fill="#FF4A00"/>
    <path d="M 615.848,138.090 L 652.432,23.802 A 500.000,500.000 0 0 1 664.845,27.955 L 625.282,141.246 A 380.000,380.000 0 0 0 615.848,138.090 Z" fill="#FF4E00"/>
    <path d="M 622.147,140.167 L 660.720,26.535 A 500.000,500.000 0 0 1 673.059,30.904 L 631.524,143.487 A 380.000,380.000 0 0 0 622.147,140.167 Z" fill="#FF5200"/>
    <path d="M 628.408,142.353 L 668.958,29.412 A 500.000,500.000 0 0 1 681.219,33.996 L 637.726,145.837 A 380.000,380.000 0 0 0 628.408,142.353 Z" fill="#FF5700"/>
    <path d="M 634.631,144.649 L 677.146,32.432 A 500.000,500.000 0 0 1 689.324,37.230 L 643.886,148.295 A 380.000,380.000 0 0 0 634.631,144.649 Z" fill="#FF5B00"/>
    <path d="M 640.812,147.052 L 685.279,35.595 A 500.000,500.000 0 0 1 697.372,40.604 L 650.003,150.859 A 380.000,380.000 0 0 0 640.812,147.052 Z" fill="#FF5F00"/>
    <path d="M 646.950,149.564 L 693.355,38.900 A 500.000,500.000 0 0 1 705.359,44.119 L 656.073,153.530 A 380.000,380.000 0 0 0 646.950,149.564 Z" fill="#FF6300"/>
    <path d="M 653.044,152.182 L 701.373,42.344 A 500.000,500.000 0 0 1 713.284,47.772 L 662.096,156.307 A 380.000,380.000 0 0 0 653.044,152.182 Z" fill="#FF6800"/>
    <path d="M 659.091,154.906 L 709.330,45.928 A 500.000,500.000 0 0 1 721.144,51.564 L 668.070,159.188 A 380.000,380.000 0 0 0 659.091,154.906 Z" fill="#FF6C00"/>
    <path d="M 665.089,157.735 L 717.223,49.651 A 500.000,500.000 0 0 1 728.937,55.491 L 673.992,162.173 A 380.000,380.000 0 0 0 665.089,157.735 Z" fill="#FF7000"/>
    <path d="M 671.037,160.668 L 725.049,53.511 A 500.000,500.000 0 0 1 736.660,59.555 L 679.861,165.262 A 380.000,380.000 0 0 0 671.037,160.668 Z" fill="#FF7400"/>
    <path d="M 676.934,163.705 L 732.807,57.506 A 500.000,500.000 0 0 1 744.311,63.752 L 685.676,168.452 A 380.000,380.000 0 0 0 676.934,163.705 Z" fill="#FF7900"/>
    <path d="M 682.776,166.844 L 740.494,61.637 A 500.000,500.000 0 0 1 751.887,68.082 L 691.434,171.743 A 380.000,380.000 0 0 0 682.776,166.844 Z" fill="#FF7D00"/>
    <path d="M 688.562,170.084 L 748.108,65.901 A 500.000,500.000 0 0 1 759.387,72.544 L 697.134,175.133 A 380.000,380.000 0 0 0 688.562,170.084 Z" fill="#FF8100"/>
    <path d="M 694.291,173.426 L 755.647,70.297 A 500.000,500.000 0 0 1 766.807,77.136 L 702.774,178.623 A 380.000,380.000 0 0 0 694.291,173.426 Z" fill="#FF8500"/>
    <path d="M 699.961,176.866 L 763.107,74.824 A 500.000,500.000 0 0 1 774.147,81.857 L 708.351,182.211 A 380.000,380.000 0 0 0 699.961,176.866 Z" fill="#FF8A00"/>
    <path d="M 705.570,180.405 L 770.487,79.480 A 500.000,500.000 0 0 1 781.402,86.705 L 713.866,185.896 A 380.000,380.000 0 0 0 705.570,180.405 Z" fill="#FF8E00"/>
    <path d="M 711.117,184.042 L 777.785,84.265 A 500.000,500.000 0 0 1 788.573,91.679 L 719.315,189.676 A 380.000,380.000 0 0 0 711.117,184.042 Z" fill="#FF9200"/>
    <path d="M 716.599,187.774 L 784.998,89.177 A 500.000,500.000 0 0 1 795.655,96.778 L 724.698,193.551 A 380.000,380.000 0 0 0 716.599,187.774 Z" fill="#FF9600"/>
    <path d="M 722.015,191.602 L 792.125,94.213 A 500.000,500.000 0 0 1 802.647,101.999 L 730.012,197.519 A 380.000,380.000 0 0 0 722.015,191.602 Z" fill="#FF9B00"/>
    <path d="M 727.363,195.524 L 799.162,99.373 A 500.000,500.000 0 0 1 809.547,107.342 L 735.256,201.580 A 380.000,380.000 0 0 0 727.363,195.524 Z" fill="#FF9F00"/>
    <path d="M 732.643,199.538 L 806.109,104.655 A 500.000,500.000 0 0 1 816.353,112.804 L 740.428,205.731 A 380.000,380.000 0 0 0 732.643,199.538 Z" fill="#FFA300"/>
    <path d="M 737.851,203.644 L 812.962,110.058 A 500.000,500.000 0 0 1 823.062,118.384 L 745.527,209.972 A 380.000,380.000 0 0 0 737.851,203.644 Z" fill="#FFA700"/>
    <path d="M 742.987,207.840 L 819.720,115.579 A 500.000,500.000 0 0 1 829.673,124.080 L 750.551,214.301 A 380.000,380.000 0 0 0 742.987,207.840 Z" fill="#FFAC00"/>
    <path d="M 748.049,212.125 L 826.380,121.218 A 500.000,500.000 0 0 1 836.183,129.891 L 755.499,218.717 A 380.000,380.000 0 0 0 748.049,212.125 Z" fill="#FFB000"/>
    <path d="M 753.035,216.498 L 832.941,126.971 A 500.000,500.000 0 0 1 842.591,135.815 L 760.370,223.219 A 380.000,380.000 0 0 0 753.035,216.498 Z" fill="#FFB400"/>
    <path d="M 757.944,220.957 L 839.400,132.839 A 500.000,500.000 0 0 1 848.895,141.849 L 765.160,227.805 A 380.000,380.000 0 0 0 757.944,220.957 Z" fill="#FFB800"/>
    <path d="M 762.775,225.502 L 845.757,138.818 A 500.000,500.000 0 0 1 855.093,147.993 L 769.870,232.474 A 380.000,380.000 0 0 0 762.775,225.502 Z" fill="#FFBD00"/>
    <path d="M 767.526,230.130 L 852.007,144.907 A 500.000,500.000 0 0 1 861.182,154.243 L 774.498,237.225 A 380.000,380.000 0 0 0 767.526,230.130 Z" fill="#FFC100"/>
    <path d="M 772.195,234.840 L 858.151,151.105 A 500.000,500.000 0 0 1 867.161,160.600 L 779.043,242.056 A 380.000,380.000 0 0 0 772.195,234.840 Z" fill="#FFC500"/>
    <path d="M 776.781,239.630 L 864.185,157.409 A 500.000,500.000 0 0 1 873.029,167.059 L 783.502,246.965 A 380.000,380.000 0 0 0 776.781,239.630 Z" fill="#FFC900"/>
    <path d="M 781.283,244.501 L 870.109,163.817 A 500.000,500.000 0 0 1 878.782,173.620 L 787.875,251.951 A 380.000,380.000 0 0 0 781.283,244.501 Z" fill="#FFCE00"/>
    <path d="M 785.699,249.449 L 875.920,170.327 A 500.000,500.000 0 0 1 884.421,180.280 L 792.160,257.013 A 380.000,380.000 0 0 0 785.699,249.449 Z" fill="#FFD200"/>
    <path d="M 790.028,254.473 L 881.616,176.938 A 500.000,500.000 0 0 1 889.942,187.038 L 796.356,262.149 A 380.000,380.000 0 0 0 790.028,254.473 Z" fill="#FFD600"/>
    <path d="M 794.269,259.572 L 887.196,183.647 A 500.000,500.000 0 0 1 895.345,193.891 L 800.462,267.357 A 380.000,380.000 0 0 0 794.269,259.572 Z" fill="#FFDA00"/>
    <path d="M 798.420,264.744 L 892.658,190.453 A 500.000,500.000 0 0 1 900.627,200.838 L 804.476,272.637 A 380.000,380.000 0 0 0 798.420,264.744 Z" fill="#FFDF00"/>
    <path d="M 802.481,269.988 L 898.001,197.353 A 500.000,500.000 0 0 1 905.787,207.875 L 808.398,277.985 A 380.000,380.000 0 0 0 802.481,269.988 Z" fill="#FFE300"/>
    <path d="M 806.449,275.302 L 903.222,204.345 A 500.000,500.000 0 0 1 910.823,215.002 L 812.226,283.401 A 380.000,380.000 0 0 0 806.449,275.302 Z" fill="#FFE700"/>
    <path d="M 810.324,280.685 L 908.321,211.427 A 500.000,500.000 0 0 1 915.735,222.215 L 815.958,288.883 A 380.000,380.000 0 0 0 810.324,280.685 Z" fill="#FFEB00"/>
    <path d="M 814.104,286.134 L 913.295,218.598 A 500.000,500.000 0 0 1 920.520,229.513 L 819.595,294.430 A 380.000,380.000 0 0 0 814.104,286.134 Z" fill="#FFF000"/>
    <path d="M 817.789,291.649 L 918.143,225.853 A 500.000,500.000 0 0 1 925.176,236.893 L 823.134,300.039 A 380.000,380.000 0 0 0 817.789,291.649 Z" fill="#FFF400"/>
    <path d="M 821.377,297.226 L 922.864,233.193 A 500.000,500.000 0 0 1 929.703,244.353 L 826.574,305.709 A 380.000,380.000 0 0 0 821.377,297.226 Z" fill="#FFF800"/>
    <path d="M 824.867,302.866 L 927.456,240.613 A 500.000,500.000 0 0 1 934.099,251.892 L 829.916,311.438 A 380.000,380.000 0 0 0 824.867,302.866 Z" fill="#FFFC00"/>
    <path d="M 828.257,308.566 L 931.918,248.113 A 500.000,500.000 0 0 1 938.363,259.506 L 833.156,317.224 A 380.000,380.000 0 0 0 828.257,308.566 Z" fill="#FCFF00"/>
    <path d="M 831.548,314.324 L 936.248,255.689 A 500.000,500.000 0 0 1 942.494,267.193 L 836.295,323.066 A 380.000,380.000 0 0 0 831.548,314.324 Z" fill="#F8FF00"/>
    <path d="M 834.738,320.139 L 940.445,263.340 A 500.000,500.000 0 0 1 946.489,274.951 L 839.332,328.963 A 380.000,380.000 0 0 0 834.738,320.139 Z" fill="#F4FF00"/>
    <path d="M 837.827,326.008 L 944.509,271.063 A 500.000,500.000 0 0 1 950.349,282.777 L 842.265,334.911 A 380.000,380.000 0 0 0 837.827,326.008 Z" fill="#F0FF00"/>
    <path d="M 840.812,331.930 L 948.436,278.856 A 500.000,500.000 0 0 1 954.072,290.670 L 845.094,340.909 A 380.000,380.000 0 0 0 840.812,331.930 Z" fill="#EBFF00"/>
    <path d="M 843.693,337.904 L 952.228,286.716 A 500.000,500.000 0 0 1 957.656,298.627 L 847.818,346.956 A 380.000,380.000 0 0 0 843.693,337.904 Z" fill="#E7FF00"/>
    <path d="M 846.470,343.927 L 955.881,294.641 A 500.000,500.000 0 0 1 961.100,306.645 L 850.436,353.050 A 380.000,380.000 0 0 0 846.470,343.927 Z" fill="#E3FF00"/>
    <path d="M 849.141,349.997 L 959.396,302.628 A 500.000,500.000 0 0 1 964.405,314.721 L 852.948,359.188 A 380.000,380.000 0 0 0 849.141,349.997 Z" fill="#DFFF00"/>
    <path d="M 851.705,356.114 L 962.770,310.676 A 500.000,500.000 0 0 1 967.568,322.854 L 855.351,365.369 A 380.000,380.000 0 0 0 851.705,356.114 Z" fill="#DAFF00"/>
    <path d="M 854.163,362.274 L 966.004,318.781 A 500.000,500.000 0 0 1 970.588,331.042 L 857.647,371.592 A 380.000,380.000 0 0 0 854.163,362.274 Z" fill="#D6FF00"/>
    <path d="M 856.513,368.476 L 969.096,326.941 A 500.000,500.000 0 0 1 973.465,339.280 L 859.833,377.853 A 380.000,380.000 0 0 0 856.513,368.476 Z" fill="#D2FF00"/>
    <path d="M 858.754,374.718 L 972.045,335.155 A 500.000,500.000 0 0 1 976.198,347.568 L 861.910,384.152 A 380.000,380.000 0 0 0 858.754,374.718 Z" fill="#CEFF00"/>
    <path d="M 860.886,380.998 L 974.850,343.418 A 500.000,500.000 0 0 1 978.786,355.902 L 863.877,390.485 A 380.000,380.000 0 0 0 860.886,380.998 Z" fill="#C9FF00"/>
    <path d="M 862.908,387.314 L 977.510,351.729 A 500.000,500.000 0 0 1 981.228,364.280 L 865.733,396.853 A 380.000,380.000 0 0 0 862.908,387.314 Z" fill="#C5FF00"/>
    <path d="M 864.819,393.665 L 980.025,360.085 A 500.000,500.000 0 0 1 983.523,372.699 L 867.477,403.251 A 380.000,380.000 0 0 0 864.819,393.665 Z" fill="#C1FF00"/>
    <path d="M 866.619,400.048 L 982.394,368.484 A 500.000,500.000 0 0 1 985.671,381.157 L 869.110,409.679 A 380.000,380.000 0 0 0 866.619,400.048 Z" fill="#BDFF00"/>
    <path d="M 868.308,406.462 L 984.615,376.923 A 500.000,500.000 0 0 1 987.671,389.651 L 870.630,416.135 A 380.000,380.000 0 0 0 868.308,406.462 Z" fill="#B8FF00"/>
    <path d="M 869.884,412.904 L 986.690,385.400 A 500.000,500.000 0 0 1 989.523,398.179 L 872.037,422.616 A 380.000,380.000 0 0 0 869.884,412.904 Z" fill="#B4FF00"/>
    <path d="M 871.348,419.372 L 988.616,393.911 A 500.000,500.000 0 0 1 991.225,406.738 L 873.331,429.121 A 380.000,380.000 0 0 0 871.348,419.372 Z" fill="#B0FF00"/>
    <path d="M 872.698,425.866 L 990.393,402.455 A 500.000,500.000 0 0 1 992.778,415.325 L 874.511,435.647 A 380.000,380.000 0 0 0 872.698,425.866 Z" fill="#ACFF00"/>
    <path d="M 873.935,432.381 L 992.020,411.028 A 500.000,500.000 0 0 1 994.181,423.938 L 875.577,442.193 A 380.000,380.000 0 0 0 873.935,432.381 Z" fill="#A7FF00"/>
    <path d="M 875.059,438.918 L 993.498,419.629 A 500.000,500.000 0 0 1 995.433,432.575 L 876.529,448.757 A 380.000,380.000 0 0 0 875.059,438.918 Z" fill="#A3FF00"/>
    <path d="M 876.068,445.473 L 994.826,428.254 A 500.000,500.000 0 0 1 996.534,441.231 L 877.366,455.336 A 380.000,380.000 0 0 0 876.068,445.473 Z" fill="#9FFF00"/>
    <path d="M 876.962,452.044 L 996.002,436.901 A 500.000,500.000 0 0 1 997.484,449.906 L 878.088,461.929 A 380.000,380.000 0 0 0 876.962,452.044 Z" fill="#9BFF00"/>
    <path d="M 877.741,458.631 L 997.028,445.567 A 500.000,500.000 0 0 1 998.283,458.596 L 878.695,468.533 A 380.000,380.000 0 0 0 877.741,458.631 Z" fill="#96FF00"/>
    <path d="M 878.406,465.229 L 997.902,454.249 A 500.000,500.000 0 0 1 998.929,467.298 L 879.186,475.147 A 380.000,380.000 0 0 0 878.406,465.229 Z" fill="#92FF00"/>
    <path d="M 878.955,471.839 L 998.625,462.946 A 500.000,500.000 0 0 1 999.424,476.011 L 879.562,481.768 A 380.000,380.000 0 0 0 878.955,471.839 Z" fill="#8EFF00"/>
    <path d="M 879.389,478.457 L 999.196,471.654 A 500.000,500.000 0 0 1 999.767,484.731 L 879.823,488.395 A 380.000,380.000 0 0 0 879.389,478.457 Z" fill="#8AFF00"/>
    <path d="M 879.707,485.081 L 999.615,480.370 A 500.000,500.000 0 0 1 999.957,493.455 L 879.967,495.026 A 380.000,380.000 0 0 0 879.707,485.081 Z" fill="#85FF00"/>
    <path d="M 879.910,491.710 L 999.881,489.093 A 500.000,500.000 0 0 1 999.995,502.182 L 879.996,501.658 A 380.000,380.000 0 0 0 879.910,491.710 Z" fill="#81FF00"/>
    <path d="M 879.996,498.342 L 999.995,497.818 A 500.000,500.000 0 0 1 999.881,510.907 L 879.910,508.290 A 380.000,380.000 0 0 0 879.996,498.342 Z" fill="#7DFF00"/>
    <path d="M 879.967,504.974 L 999.957,506.545 A 500.000,500.000 0 0 1 999.615,519.630 L 879.707,514.919 A 380.000,380.000 0 0 0 879.967,504.974 Z" fill="#79FF00"/>
    <path d="M 879.823,511.605 L 999.767,515.269 A 500.000,500.000 0 0 1 999.196,528.346 L 879.389,521.543 A 380.000,380.000 0 0 0 879.823,511.605 Z" fill="#74FF00"/>
    <path d="M 879.562,518.232 L 999.424,523.989 A 500.000,500.000 0 0 1 998.625,537.054 L 878.955,528.161 A 380.000,380.000 0 0 0 879.562,518.232 Z" fill="#70FF00"/>
    <path d="M 879.186,524.853 L 998.929,532.702 A 500.000,500.000 0 0 1 997.902,545.751 L 878.406,534.771 A 380.000,380.000 0 0 0 879.186,524.853 Z" fill="#6CFF00"/>
    <path d="M 878.695,531.467 L 998.283,541.404 A 500.000,500.000 0 0 1 997.028,554.433 L 877.741,541.369 A 380.000,380.000 0 0 0 878.695,531.467 Z" fill="#68FF00"/>
    <path d="M 878.088,538.071 L 997.484,550.094 A 500.000,500.000 0 0 1 996.002,563.099 L 876.962,547.956 A 380.000,380.000 0 0 0 878.088,538.071 Z" fill="#63FF00"/>
    <path d="M 877.366,544.664 L 996.534,558.769 A 500.000,500.000 0 0 1 994.826,571.746 L 876.068,554.527 A 380.000,380.000 0 0 0 877.366,544.664 Z" fill="#5FFF00"/>
    <path d="M 876.529,551.243 L 995.433,567.425 A 500.000,500.000 0 0 1 993.498,580.371 L 875.059,561.082 A 380.000,380.000 0 0 0 876.529,551.243 Z" fill="#5BFF00"/>
    <path d="M 875.577,557.807 L 994.181,576.062 A 500.000,500.000 0 0 1 992.020,588.972 L 873.935,567.619 A 380.000,380.000 0 0 0 875.577,557.807 Z" fill="#57FF00"/>
    <path d="M 874.511,564.353 L 992.778,584.675 A 500.000,500.000 0 0 1 990.393,597.545 L 872.698,574.134 A 380.000,380.000 0 0 0 874.511,564.353 Z" fill="#52FF00"/>
    <path d="M 873.331,570.879 L 991.225,593.262 A 500.000,500.000 0 0 1 988.616,606.089 L 871.348,580.628 A 380.000,380.000 0 0 0 873.331,570.879 Z" fill="#4EFF00"/>
    <path d="M 872.037,577.384 L 989.523,601.821 A 500.000,500.000 0 0 1 986.690,614.600 L 869.884,587.096 A 380.000,380.000 0 0 0 872.037,577.384 Z" fill="#4AFF00"/>
    <path d="M 870.630,583.865 L 987.671,610.349 A 500.000,500.000 0 0 1 984.615,623.077 L 868.308,593.538 A 380.000,380.000 0 0 0 870.630,583.865 Z" fill="#46FF00"/>
    <path d="M 869.110,590.321 L 985.671,618.843 A 500.000,500.000 0 0 1 982.394,631.516 L 866.619,599.952 A 380.000,380.000 0 0 0 869.110,590.321 Z" fill="#41FF00"/>
    <path d="M 867.477,596.749 L 983.523,627.301 A 500.000,500.000 0 0 1 980.025,639.915 L 864.819,606.335 A 380.000,380.000 0 0 0 867.477,596.749 Z" fill="#3DFF00"/>
    <path d="M 865.733,603.147 L 981.228,635.720 A 500.000,500.000 0 0 1 977.510,648.271 L 862.908,612.686 A 380.000,380.000 0 0 0 865.733,603.147 Z" fill="#39FF00"/>
    <path d="M 863.877,609.515 L 978.786,644.098 A 500.000,500.000 0 0 1 974.850,656.582 L 860.886,619.002 A 380.000,380.000 0 0 0 863.877,609.515 Z" fill="#35FF00"/>
    <path d="M 861.910,615.848 L 976.198,652.432 A 500.000,500.000 0 0 1 972.045,664.845 L 858.754,625.282 A 380.000,380.000 0 0 0 861.910,615.848 Z" fill="#30FF00"/>
    <path d="M 859.833,622.147 L 973.465,660.720 A 500.000,500.000 0 0 1 969.096,673.059 L 856.513,631.524 A 380.000,380.000 0 0 0 859.833,622.147 Z" fill="#2CFF00"/>
    <path d="M 857.647,628.408 L 970.588,668.958 A 500.000,500.000 0 0 1 966.004,681.219 L 854.163,637.726 A 380.000,380.000 0 0 0 857.647,628.408 Z" fill="#28FF00"/>
    <path d="M 855.351,634.631 L 967.568,677.146 A 500.000,500.000 0 0 1 962.770,689.324 L 851.705,643.886 A 380.000,380.000 0 0 0 855.351,634.631 Z" fill="#24FF00"/>
    <path d="M 852.948,640.812 L 964.405,685.279 A 500.000,500.000 0 0 1 959.396,697.372 L 849.141,650.003 A 380.000,380.000 0 0 0 852.948,640.812 Z" fill="#1FFF00"/>
    <path d="M 850.436,646.950 L 961.100,693.355 A 500.000,500.000 0 0 1 955.881,705.359 L 846.470,656.073 A 380.000,380.000 0 0 0 850.436,646.950 Z" fill="#1BFF00"/>
    <path d="M 847.818,653.044 L 957.656,701.373 A 500.000,500.000 0 0 1 952.228,713.284 L 843.693,662.096 A 380.000,380.000 0 0 0 847.818,653.044 Z" fill="#17FF00"/>
    <path d="M 845.094,659.091 L 954.072,709.330 A 500.000,500.000 0 0 1 948.436,721.144 L 840.812,668.070 A 380.000,380.000 0 0 0 845.094,659.091 Z" fill="#13FF00"/>
    <path d="M 842.265,665.089 L 950.349,717.223 A 500.000,500.000 0 0 1 944.509,728.937 L 837.827,673.992 A 380.000,380.000 0 0 0 842.265,665.089 Z" fill="#0EFF00"/>
    <path d="M 839.332,671.037 L 946.489,725.049 A 500.000,500.000 0 0 1 940.445,736.660 L 834.738,679.861 A 380.000,380.000 0 0 0 839.332,671.037 Z" fill="#0AFF00"/>
    <path d="M 836.295,676.934 L 942.494,732.807 A 500.000,500.000 0 0 1 936.248,744.311 L 831.548,685.676 A 380.000,380.000 0 0 0 836.295,676.934 Z" fill="#06FF00"/>
    <path d="M 833.156,682.776 L 938.363,740.494 A 500.000,500.000 0 0 1 931.918,751.887 L 828.257,691.434 A 380.000,380.000 0 0 0 833.156,682.776 Z" fill="#02FF00"/>
    <path d="M 829.916,688.562 L 934.099,748.108 A 500.000,500.000 0 0 1 927.456,759.387 L 824.867,697.134 A 380.000,380.000 0 0 0 829.916,688.562 Z" fill="#00FF02"/>
    <path d="M 826.574,694.291 L 929.703,755.647 A 500.000,500.000 0 0 1 922.864,766.807 L 821.377,702.774 A 380.000,380.000 0 0 0 826.574,694.291 Z" fill="#00FF06"/>
    <path d="M 823.134,699.961 L 925.176,763.107 A 500.000,500.000 0 0 1 918.143,774.147 L 817.789,708.351 A 380.000,380.000 0 0 0 823.134,699.961 Z" fill="#00FF0A"/>
    <path d="M 819.595,705.570 L 920.520,770.487 A 500.000,500.000 0 0 1 913.295,781.402 L 814.104,713.866 A 380.000,380.000 0 0 0 819.595,705.570 Z" fill="#00FF0E"/>
    <path d="M 815.958,711.117 L 915.735,777.785 A 500.000,500.000 0 0 1 908.321,788.573 L 810.324,719.315 A 380.000,380.000 0 0 0 815.958,711.117 Z" fill="#00FF13"/>
    <path d="M 812.226,716.599 L 910.823,784.998 A 500.000,500.000 0 0 1 903.222,795.655 L 806.449,724.698 A 380.000,380.000 0 0 0 812.226,716.599 Z" fill="#00FF17"/>
    <path d="M 808.398,722.015 L 905.787,792.125 A 500.000,500.000 0 0 1 898.001,802.647 L 802.481,730.012 A 380.000,380.000 0 0 0 808.398,722.015 Z" fill="#00FF1B"/>
    <path d="M 804.476,727.363 L 900.627,799.162 A 500.000,500.000 0 0 1 892.658,809.547 L 798.420,735.256 A 380.000,380.000 0 0 0 804.476,727.363 Z" fill="#00FF1F"/>
    <path d="M 800.462,732.643 L 895.345,806.109 A 500.000,500.000 0 0 1 887.196,816.353 L 794.269,740.428 A 380.000,380.000 0 0 0 800.462,732.643 Z" fill="#00FF24"/>
    <path d="M 796.356,737.851 L 889.942,812.962 A 500.000,500.000 0 0 1 881.616,823.062 L 790.028,745.527 A 380.000,380.000 0 0 0 796.356,737.851 Z" fill="#00FF28"/>
    <path d="M 792.160,742.987 L 884.421,819.720 A 500.000,500.000 0 0 1 875.920,829.673 L 785.699,750.551 A 380.000,380.000 0 0 0 792.160,742.987 Z" fill="#00FF2C"/>
    <path d="M 787.875,748.049 L 878.782,826.380 A 500.000,500.000 0 0 1 870.109,836.183 L 781.283,755.499 A 380.000,380.000 0 0 0 787.875,748.049 Z" fill="#00FF30"/>
    <path d="M 783.502,753.035 L 873.029,832.941 A 500.000,500.000 0 0 1 864.185,842.591 L 776.781,760.370 A 380.000,380.000 0 0 0 783.502,753.035 Z" fill="#00FF35"/>
    <path d="M 779.043,757.944 L 867.161,839.400 A 500.000,500.000 0 0 1 858.151,848.895 L 772.195,765.160 A 380.000,380.000 0 0 0 779.043,757.944 Z" fill="#00FF39"/>
    <path d="M 774.498,762.775 L 861.182,845.757 A 500.000,500.000 0 0 1 852.007,855.093 L 767.526,769.870 A 380.000,380.000 0 0 0 774.498,762.775 Z" fill="#00FF3D"/>
    <path d="M 769.870,767.526 L 855.093,852.007 A 500.000,500.000 0 0 1 845.757,861.182 L 762.775,774.498 A 380.000,380.000 0 0 0 769.870,767.526 Z" fill="#00FF41"/>
    <path d="M 765.160,772.195 L 848.895,858.151 A 500.000,500.000 0 0 1 839.400,867.161 L 757.944,779.043 A 380.000,380.000 0 0 0 765.160,772.195 Z" fill="#00FF46"/>
    <path d="M 760.370,776.781 L 842.591,864.185 A 500.000,500.000 0 0 1 832.941,873.029 L 753.035,783.502 A 380.000,380.000 0 0 0 760.370,776.781 Z" fill="#00FF4A"/>
    <path d="M 755.499,781.283 L 836.183,870.109 A 500.000,500.000 0 0 1 826.380,878.782 L 748.049,787.875 A 380.000,380.000 0 0 0 755.499,781.283 Z" fill="#00FF4E"/>
    <path d="M 750.551,785.699 L 829.673,875.920 A 500.000,500.000 0 0 1 819.720,884.421 L 742.987,792.160 A 380.000,380.000 0 0 0 750.551,785.699 Z" fill="#00FF52"/>
    <path d="M 745.527,790.028 L 823.062,881.616 A 500.000,500.000 0 0 1 812.962,889.942 L 737.851,796.356 A 380.000,380.000 0 0 0 745.527,790.028 Z" fill="#00FF57"/>
    <path d="M 740.428,794.269 L 816.353,887.196 A 500.000,500.000 0 0 1 806.109,895.345 L 732.643,800.462 A 380.000,380.000 0 0 0 740.428,794.269 Z" fill="#00FF5B"/>
    <path d="M 735.256,798.420 L 809.547,892.658 A 500.000,500.000 0 0 1 799.162,900.627 L 727.363,804.476 A 380.000,380.000 0 0 0 735.256,798.420 Z" fill="#00FF5F"/>
    <path d="M 730.012,802.481 L 802.647,898.001 A 500.000,500.000 0 0 1 792.125,905.787 L 722.015,808.398 A 380.000,380.000 0 0 0 730.012,802.481 Z" fill="#00FF63"/>
    <path d="M 724.698,806.449 L 795.655,903.222 A 500.000,500.000 0 0 1 784.998,910.823 L 716.599,812.226 A 380.000,380.000 0 0 0 724.698,806.449 Z" fill="#00FF68"/>
    <path d="M 719.315,810.324 L 788.573,908.321 A 500.000,500.000 0 0 1 777.785,915.735 L 711.117,815.958 A 380.000,380.000 0 0 0 719.315,810.324 Z" fill="#00FF6C"/>
    <path d="M 713.866,814.104 L 781.402,913.295 A 500.000,500.000 0 0 1 770.487,920.520 L 705.570,819.595 A 380.000,380.000 0 0 0 713.866,814.104 Z" fill="#00FF70"/>
    <path d="M 708.351,817.789 L 774.147,918.143 A 500.000,500.000 0 0 1 763.107,925.176 L 699.961,823.134 A 380.000,380.000 0 0 0 708.351,817.789 Z" fill="#00FF74"/>
    <path d="M 702.774,821.377 L 766.807,922.864 A 500.000,500.000 0 0 1 755.647,929.703 L 694.291,826.574 A 380.000,380.000 0 0 0 702.774,821.377 Z" fill="#00FF79"/>
    <path d="M 697.134,824.867 L 759.387,927.456 A 500.000,500.000 0 0 1 748.108,934.099 L 688.562,829.916 A 380.000,380.000 0 0 0 697.134,824.867 Z" fill="#00FF7D"/>
    <path d="M 691.434,828.257 L 751.887,931.918 A 500.000,500.000 0 0 1 740.494,938.363 L 682.776,833.156 A 380.000,380.000 0 0 0 691.434,828.257 Z" fill="#00FF81"/>
    <path d="M 685.676,831.548 L 744.311,936.248 A 500.000,500.000 0 0 1 732.807,942.494 L 676.934,836.295 A 380.000,380.000 0 0 0 685.676,831.548 Z" fill="#00FF85"/>
    <path d="M 679.861,834.738 L 736.660,940.445 A 500.000,500.000 0 0 1 725.049,946.489 L 671.037,839.332 A 380.000,380.000 0 0 0 679.861,834.738 Z" fill="#00FF8A"/>
    <path d="M 673.992,837.827 L 728.937,944.509 A 500.000,500.000 0 0 1 717.223,950.349 L 665.089,842.265 A 380.000,380.000 0 0 0 673.992,837.827 Z" fill="#00FF8E"/>
    <path d="M 668.070,840.812 L 721.144,948.436 A 500.000,500.000 0 0 1 709.330,954.072 L 659.091,845.094 A 380.000,380.000 0 0 0 668.070,840.812 Z" fill="#00FF92"/>
    <path d="M 662.096,843.693 L 713.284,952.228 A 500.000,500.000 0 0 1 701.373,957.656 L 653.044,847.818 A 380.000,380.000 0 0 0 662.096,843.693 Z" fill="#00FF96"/>
    <path d="M 656.073,846.470 L 705.359,955.881 A 500.000,500.000 0 0 1 693.355,961.100 L 646.950,850.436 A 380.000,380.000 0 0 0 656.073,846.470 Z" fill="#00FF9B"/>
    <path d="M 650.003,849.141 L 697.372,959.396 A 500.000,500.000 0 0 1 685.279,964.405 L 640.812,852.948 A 380.000,380.000 0 0 0 650.003,849.141 Z" fill="#00FF9F"/>
    <path d="M 643.886,851.705 L 689.324,962.770 A 500.000,500.000 0 0 1 677.146,967.568 L 634.631,855.351 A 380.000,380.000 0 0 0 643.886,851.705 Z" fill="#00FFA3"/>
    <path d="M 637.726,854.163 L 681.219,966.004 A 500.000,500.000 0 0 1 668.958,970.588 L 628.408,857.647 A 380.000,380.000 0 0 0 637.726,854.163 Z" fill="#00FFA7"/>
    <path d="M 631.524,856.513 L 673.059,969.096 A 500.000,500.000 0 0 1 660.720,973.465 L 622.147,859.833 A 380.000,380.000 0 0 0 631.524,856.513 Z" fill="#00FFAC"/>
    <path d="M 625.282,858.754 L 664.845,972.045 A 500.000,500.000 0 0 1 652.432,976.198 L 615.848,861.910 A 380.000,380.000 0 0 0 625.282,858.754 Z" fill="#00FFB0"/>
    <path d="M 619.002,860.886 L 656.582,974.850 A 500.000,500.000 0 0 1 644.098,978.786 L 609.515,863.877 A 380.000,380.000 0 0 0 619.002,860.886 Z" fill="#00FFB4"/>
    <path d="M 612.686,862.908 L 648.271,977.510 A 500.000,500.000 0 0 1 635.720,981.228 L 603.147,865.733 A 380.000,380.000 0 0 0 612.686,862.908 Z" fill="#00FFB8"/>
    <path d="M 606.335,864.819 L 639.915,980.025 A 500.000,500.000 0 0 1 627.301,983.523 L 596.749,867.477 A 380.000,380.000 0 0 0 606.335,864.819 Z" fill="#00FFBD"/>
    <path d="M 599.952,866.619 L 631.516,982.394 A 500.000,500.000 0 0 1 618.843,985.671 L 590.321,869.110 A 380.000,380.000 0 0 0 599.952,866.619 Z" fill="#00FFC1"/>
    <path d="M 593.538,868.308 L 623.077,984.615 A 500.000,500.000 0 0 1 610.349,987.671 L 583.865,870.630 A 380.000,380.000 0 0 0 593.538,868.308 Z" fill="#00FFC5"/>
    <path d="M 587.096,869.884 L 614.600,986.690 A 500.000,500.000 0 0 1 601.821,989.523 L 577.384,872.037 A 380.000,380.000 0 0 0 587.096,869.884 Z" fill="#00FFC9"/>
    <path d="M 580.628,871.348 L 606.089,988.616 A 500.000,500.000 0 0 1 593.262,991.225 L 570.879,873.331 A 380.000,380.000 0 0 0 580.628,871.348 Z" fill="#00FFCE"/>
    <path d="M 574.134,872.698 L 597.545,990.393 A 500.000,500.000 0 0 1 584.675,992.778 L 564.353,874.511 A 380.000,380.000 0 0 0 574.134,872.698 Z" fill="#00FFD2"/>
    <path d="M 567.619,873.935 L 588.972,992.020 A 500.000,500.000 0 0 1 576.062,994.181 L 557.807,875.577 A 380.000,380.000 0 0 0 567.619,873.935 Z" fill="#00FFD6"/>
    <path d="M 561.082,875.059 L 580.371,993.498 A 500.000,500.000 0 0 1 567.425,995.433 L 551.243,876.529 A 380.000,380.000 0 0 0 561.082,875.059 Z" fill="#00FFDA"/>
    <path d="M 554.527,876.068 L 571.746,994.826 A 500.000,500.000 0 0 1 558.769,996.534 L 544.664,877.366 A 380.000,380.000 0 0 0 554.527,876.068 Z" fill="#00FFDF"/>
    <path d="M 547.956,876.962 L 563.099,996.002 A 500.000,500.000 0 0 1 550.094,997.484 L 538.071,878.088 A 380.000,380.000 0 0 0 547.956,876.962 Z" fill="#00FFE3"/>
    <path d="M 541.369,877.741 L 554.433,997.028 A 500.000,500.000 0 0 1 541.404,998.283 L 531.467,878.695 A 380.000,380.000 0 0 0 541.369,877.741 Z" fill="#00FFE7"/>
    <path d="M 534.771,878.406 L 545.751,997.902 A 500.000,500.000 0 0 1 532.702,998.929 L 524.853,879.186 A 380.000,380.000 0 0 0 534.771,878.406 Z" fill="#00FFEB"/>
    <path d="M 528.161,878.955 L 537.054,998.625 A 500.000,500.000 0 0 1 523.989,999.424 L 518.232,879.562 A 380.000,380.000 0 0 0 528.161,878.955 Z" fill="#00FFF0"/>
    <path d="M 521.543,879.389 L 528.346,999.196 A 500.000,500.000 0 0 1 515.269,999.767 L 511.605,879.823 A 380.000,380.000 0 0 0 521.543,879.389 Z" fill="#00FFF4"/>
    <path d="M 514.919,879.707 L 519.630,999.615 A 500.000,500.000 0 0 1 506.545,999.957 L 504.974,879.967 A 380.000,380.000 0 0 0 514.919,879.707 Z" fill="#00FFF8"/>
    <path d="M 508.290,879.910 L 510.907,999.881 A 500.000,500.000 0 0 1 497.818,999.995 L 498.342,879.996 A 380.000,380.000 0 0 0 508.290,879.910 Z" fill="#00FFFC"/>
    <path d="M 501.658,879.996 L 502.182,999.995 A 500.000,500.000 0 0 1 489.093,999.881 L 491.710,879.910 A 380.000,380.000 0 0 0 501.658,879.996 Z" fill="#00FCFF"/>
    <path d="M 495.026,879.967 L 493.455,999.957 A 500.000,500.000 0 0 1 480.370,999.615 L 485.081,879.707 A 380.000,380.000 0 0 0 495.026,879.967 Z" fill="#00F8FF"/>
    <path d="M 488.395,879.823 L 484.731,999.767 A 500.000,500.000 0 0 1 471.654,999.196 L 478.457,879.389 A 380.000,380.000 0 0 0 488.395,879.823 Z" fill="#00F4FF"/>
    <path d="M 481.768,879.562 L 476.011,999.424 A 500.000,500.000 0 0 1 462.946,998.625 L 471.839,878.955 A 380.000,380.000 0 0 0 481.768,879.562 Z" fill="#00F0FF"/>
    <path d="M 475.147,879.186 L 467.298,998.929 A 500.000,500.000 0 0 1 454.249,997.902 L 465.229,878.406 A 380.000,380.000 0 0 0 475.147,879.186 Z" fill="#00EBFF"/>
    <path d="M 468.533,878.695 L 458.596,998.283 A 500.000,500.000 0 0 1 445.567,997.028 L 458.631,877.741 A 380.000,380.000 0 0 0 468.533,878.695 Z" fill="#00E7FF"/>
    <path d="M 461.929,878.088 L 449.906,997.484 A 500.000,500.000 0 0 1 436.901,996.002 L 452.044,876.962 A 380.000,380.000 0 0 0 461.929,878.088 Z" fill="#00E3FF"/>
    <path d="M 455.336,877.366 L 441.231,996.534 A 500.000,500.000 0 0 1 428.254,994.826 L 445.473,876.068 A 380.000,380.000 0 0 0 455.336,877.366 Z" fill="#00DFFF"/>
    <path d="M 448.757,876.529 L 432.575,995.433 A 500.000,500.000 0 0 1 419.629,993.498 L 438.918,875.059 A 380.000,380.000 0 0 0 448.757,876.529 Z" fill="#00DAFF"/>
    <path d="M 442.193,875.577 L 423.938,994.181 A 500.000,500.000 0 0 1 411.028,992.020 L 432.381,873.935 A 380.000,380.000 0 0 0 442.193,875.577 Z" fill="#00D6FF"/>
    <path d="M 435.647,874.511 L 415.325,992.778 A 500.000,500.000 0 0 1 402.455,990.393 L 425.866,872.698 A 380.000,380.000 0 0 0 435.647,874.511 Z" fill="#00D2FF"/>
    <path d="M 429.121,873.331 L 406.738,991.225 A 500.000,500.000 0 0 1 393.911,988.616 L 419.372,871.348 A 380.000,380.000 0 0 0 429.121,873.331 Z" fill="#00CEFF"/>
    <path d="M 422.616,872.037 L 398.179,989.523 A 500.000,500.000 0 0 1 385.400,986.690 L 412.904,869.884 A 380.000,380.000 0 0 0 422.616,872.037 Z" fill="#00C9FF"/>
    <path d="M 416.135,870.630 L 389.651,987.671 A 500.000,500.000 0 0 1 376.923,984.615 L 406.462,868.308 A 380.000,380.000 0 0 0 416.135,870.630 Z" fill="#00C5FF"/>
    <path d="M 409.679,869.110 L 381.157,985.671 A 500.000,500.000 0 0 1 368.484,982.394 L 400.048,866.619 A 380.000,380.000 0 0 0 409.679,869.110 Z" fill="#00C1FF"/>
    <path d="M 403.251,867.477 L 372.699,983.523 A 500.000,500.000 0 0 1 360.085,980.025 L 393.665,864.819 A 380.000,380.000 0 0 0 403.251,867.477 Z" fill="#00BDFF"/>
    <path d="M 396.853,865.733 L 364.280,981.228 A 500.000,500.000 0 0 1 351.729,977.510 L 387.314,862.908 A 380.000,380.000 0 0 0 396.853,865.733 Z" fill="#00B8FF"/>
    <path d="M 390.485,863.877 L 355.902,978.786 A 500.000,500.000 0 0 1 343.418,974.850 L 380.998,860.886 A 380.000,380.000 0 0 0 390.485,863.877 Z" fill="#00B4FF"/>
    <path d="M 384.152,861.910 L 347.568,976.198 A 500.000,500.000 0 0 1 335.155,972.045 L 374.718,858.754 A 380.000,380.000 0 0 0 384.152,861.910 Z" fill="#00B0FF"/>
    <path d="M 377.853,859.833 L 339.280,973.465 A 500.000,500.000 0 0 1 326.941,969.096 L 368.476,856.513 A 380.000,380.000 0 0 0 377.853,859.833 Z" fill="#00ACFF"/>
    <path d="M 371.592,857.647 L 331.042,970.588 A 500.000,500.000 0 0 1 318.781,966.004 L 362.274,854.163 A 380.000,380.000 0 0 0 371.592,857.647 Z" fill="#00A7FF"/>
    <path d="M 365.369,855.351 L 322.854,967.568 A 500.000,500.000 0 0 1 310.676,962.770 L 356.114,851.705 A 380.000,380.000 0 0 0 365.369,855.351 Z" fill="#00A3FF"/>
    <path d="M 359.188,852.948 L 314.721,964.405 A 500.000,500.000 0 0 1 302.628,959.396 L 349.997,849.141 A 380.000,380.000 0 0 0 359.188,852.948 Z" fill="#009FFF"/>
    <path d="M 353.050,850.436 L 306.645,961.100 A 500.000,500.000 0 0 1 294.641,955.881 L 343.927,846.470 A 380.000,380.000 0 0 0 353.050,850.436 Z" fill="#009BFF"/>
    <path d="M 346.956,847.818 L 298.627,957.656 A 500.000,500.000 0 0 1 286.716,952.228 L 337.904,843.693 A 380.000,380.000 0 0 0 346.956,847.818 Z" fill="#0096FF"/>
    <path d="M 340.909,845.094 L 290.670,954.072 A 500.000,500.000 0 0 1 278.856,948.436 L 331.930,840.812 A 380.000,380.000 0 0 0 340.909,845.094 Z" fill="#0092FF"/>
    <path d="M 334.911,842.265 L 282.777,950.349 A 500.000,500.000 0 0 1 271.063,944.509 L 326.008,837.827 A 380.000,380.000 0 0 0 334.911,842.265 Z" fill="#008EFF"/>
    <path d="M 328.963,839.332 L 274.951,946.489 A 500.000,500.000 0 0 1 263.340,940.445 L 320.139,834.738 A 380.000,380.000 0 0 0 328.963,839.332 Z" fill="#008AFF"/>
    <path d="M 323.066,836.295 L 267.193,942.494 A 500.000,500.000 0 0 1 255.689,936.248 L 314.324,831.548 A 380.000,380.000 0 0 0 323.066,836.295 Z" fill="#0085FF"/>
    <path d="M 317.224,833.156 L 259.506,938.363 A 500.000,500.000 0 0 1 248.113,931.918 L 308.566,828.257 A 380.000,380.000 0 0 0 317.224,833.156 Z" fill="#0081FF"/>
    <path d="M 311.438,829.916 L 251.892,934.099 A 500.000,500.000 0 0 1 240.613,927.456 L 302.866,824.867 A 380.000,380.000 0 0 0 311.438,829.916 Z" fill="#007DFF"/>
    <path d="M 305.709,826.574 L 244.353,929.703 A 500.000,500.000 0 0 1 233.193,922.864 L 297.226,821.377 A 380.000,380.000 0 0 0 305.709,826.574 Z" fill="#0079FF"/>
    <path d="M 300.039,823.134 L 236.893,925.176 A 500.000,500.000 0 0 1 225.853,918.143 L 291.649,817.789 A 380.000,380.000 0 0 0 300.039,823.134 Z" fill="#0074FF"/>
    <path d="M 294.430,819.595 L 229.513,920.520 A 500.000,500.000 0 0 1 218.598,913.295 L 286.134,814.104 A 380.000,380.000 0 0 0 294.430,819.595 Z" fill="#0070FF"/>
    <path d="M 288.883,815.958 L 222.215,915.735 A 500.000,500.000 0 0 1 211.427,908.321 L 280.685,810.324 A 380.000,380.000 0 0 0 288.883,815.958 Z" fill="#006CFF"/>
    <path d="M 283.401,812.226 L 215.002,910.823 A 500.000,500.000 0 0 1 204.345,903.222 L 275.302,806.449 A 380.000,380.000 0 0 0 283.401,812.226 Z" fill="#0068FF"/>
    <path d="M 277.985,808.398 L 207.875,905.787 A 500.000,500.000 0 0 1 197.353,898.001 L 269.988,802.481 A 380.000,380.000 0 0 0 277.985,808.398 Z" fill="#0063FF"/>
    <path d="M 272.637,804.476 L 200.838,900.627 A 500.000,500.000 0 0 1 190.453,892.658 L 264.744,798.420 A 380.000,380.000 0 0 0 272.637,804.476 Z" fill="#005FFF"/>
    <path d="M 267.357,800.462 L 193.891,895.345 A 500.000,500.000 0 0 1 183.647,887.196 L 259.572,794.269 A 380.000,380.000 0 0 0 267.357,800.462 Z" fill="#005BFF"/>
    <path d="M 262.149,796.356 L 187.038,889.942 A 500.000,500.000 0 0 1 176.938,881.616 L 254.473,790.028 A 380.000,380.000 0 0 0 262.149,796.356 Z" fill="#0057FF"/>
    <path d="M 257.013,792.160 L 180.280,884.421 A 500.000,500.000 0 0 1 170.327,875.920 L 249.449,785.699 A 380.000,380.000 0 0 0 257.013,792.160 Z" fill="#0052FF"/>
    <path d="M 251.951,787.875 L 173.620,878.782 A 500.000,500.000 0 0 1 163.817,870.109 L 244.501,781.283 A 380.000,380.000 0 0 0 251.951,787.875 Z" fill="#004EFF"/>
    <path d="M 246.965,783.502 L 167.059,873.029 A 500.000,500.000 0 0 1 157.409,864.185 L 239.630,776.781 A 380.000,380.000 0 0 0 246.965,783.502 Z" fill="#004AFF"/>
    <path d="M 242.056,779.043 L 160.600,867.161 A 500.000,500.000 0 0 1 151.105,858.151 L 234.840,772.195 A 380.000,380.000 0 0 0 242.056,779.043 Z" fill="#0046FF"/>
    <path d="M 237.225,774.498 L 154.243,861.182 A 500.000,500.000 0 0 1 144.907,852.007 L 230.130,767.526 A 380.000,380.000 0 0 0 237.225,774.498 Z" fill="#0041FF"/>
    <path d="M 232.474,769.870 L 147.993,855.093 A 500.000,500.000 0 0 1 138.818,845.757 L 225.502,762.775 A 380.000,380.000 0 0 0 232.474,769.870 Z" fill="#003DFF"/>
    <path d="M 227.805,765.160 L 141.849,848.895 A 500.000,500.000 0 0 1 132.839,839.400 L 220.957,757.944 A 380.000,380.000 0 0 0 227.805,765.160 Z" fill="#0039FF"/>
    <path d="M 223.219,760.370 L 135.815,842.591 A 500.000,500.000 0 0 1 126.971,832.941 L 216.498,753.035 A 380.000,380.000 0 0 0 223.219,760.370 Z" fill="#0035FF"/>
    <path d="M 218.717,755.499 L 129.891,836.183 A 500.000,500.000 0 0 1 121.218,826.380 L 212.125,748.049 A 380.000,380.000 0 0 0 218.717,755.499 Z" fill="#0030FF"/>
    <path d="M 214.301,750.551 L 124.080,829.673 A 500.000,500.000 0 0 1 115.579,819.720 L 207.840,742.987 A 380.000,380.000 0 0 0 214.301,750.551 Z" fill="#002CFF"/>
    <path d="M 209.972,745.527 L 118.384,823.062 A 500.000,500.000 0 0 1 110.058,812.962 L 203.644,737.851 A 380.000,380.000 0 0 0 209.972,745.527 Z" fill="#0028FF"/>
    <path d="M 205.731,740.428 L 112.804,816.353 A 500.000,500.000 0 0 1 104.655,806.109 L 199.538,732.643 A 380.000,380.000 0 0 0 205.731,740.428 Z" fill="#0024FF"/>
    <path d="M 201.580,735.256 L 107.342,809.547 A 500.000,500.000 0 0 1 99.373,799.162 L 195.524,727.363 A 380.000,380.000 0 0 0 201.580,735.256 Z" fill="#001FFF"/>
    <path d="M 197.519,730.012 L 101.999,802.647 A 500.000,500.000 0 0 1 94.213,792.125 L 191.602,722.015 A 380.000,380.000 0 0 0 197.519,730.012 Z" fill="#001BFF"/>
    <path d="M 193.551,724.698 L 96.778,795.655 A 500.000,500.000 0 0 1 89.177,784.998 L 187.774,716.599 A 380.000,380.000 0 0 0 193.551,724.698 Z" fill="#0017FF"/>
    <path d="M 189.676,719.315 L 91.679,788.573 A 500.000,500.000 0 0 1 84.265,777.785 L 184.042,711.117 A 380.000,380.000 0 0 0 189.676,719.315 Z" fill="#0013FF"/>
    <path d="M 185.896,713.866 L 86.705,781.402 A 500.000,500.000 0 0 1 79.480,770.487 L 180.405,705.570 A 380.000,380.000 0 0 0 185.896,713.866 Z" fill="#000EFF"/>
    <path d="M 182.211,708.351 L 81.857,774.147 A 500.000,500.000 0 0 1 74.824,763.107 L 176.866,699.961 A 380.000,380.000 0 0 0 182.211,708.351 Z" fill="#000AFF"/>
    <path d="M 178.623,702.774 L 77.136,766.807 A 500.000,500.000 0 0 1 70.297,755.647 L 173.426,694.291 A 380.000,380.000 0 0 0 178.623,702.774 Z" fill="#0006FF"/>
    <path d="M 175.133,697.134 L 72.544,759.387 A 500.000,500.000 0 0 1 65.901,748.108 L 170.084,688.562 A 380.000,380.000 0 0 0 175.133,697.134 Z" fill="#0002FF"/>
    <path d="M 171.743,691.434 L 68.082,751.887 A 500.000,500.000 0 0 1 61.637,740.494 L 166.844,682.776 A 380.000,380.000 0 0 0 171.743,691.434 Z" fill="#0200FF"/>
    <path d="M 168.452,685.676 L 63.752,744.311 A 500.000,500.000 0 0 1 57.506,732.807 L 163.705,676.934 A 380.000,380.000 0 0 0 168.452,685.676 Z" fill="#0600FF"/>
    <path d="M 165.262,679.861 L 59.555,736.660 A 500.000,500.000 0 0 1 53.511,725.049 L 160.668,671.037 A 380.000,380.000 0 0 0 165.262,679.861 Z" fill="#0A00FF"/>
    <path d="M 162.173,673.992 L 55.491,728.937 A 500.000,500.000 0 0 1 49.651,717.223 L 157.735,665.089 A 380.000,380.000 0 0 0 162.173,673.992 Z" fill="#0E00FF"/>
    <path d="M 159.188,668.070 L 51.564,721.144 A 500.000,500.000 0 0 1 45.928,709.330 L 154.906,659.091 A 380.000,380.000 0 0 0 159.188,668.070 Z" fill="#1300FF"/>
    <path d="M 156.307,662.096 L 47.772,713.284 A 500.000,500.000 0 0 1 42.344,701.373 L 152.182,653.044 A 380.000,380.000 0 0 0 156.307,662.096 Z" fill="#1700FF"/>
    <path d="M 153.530,656.073 L 44.119,705.359 A 500.000,500.000 0 0 1 38.900,693.355 L 149.564,646.950 A 380.000,380.000 0 0 0 153.530,656.073 Z" fill="#1B00FF"/>
    <path d="M 150.859,650.003 L 40.604,697.372 A 500.000,500.000 0 0 1 35.595,685.279 L 147.052,640.812 A 380.000,380.000 0 0 0 150.859,650.003 Z" fill="#1F00FF"/>
    <path d="M 148.295,643.886 L 37.230,689.324 A 500.000,500.000 0 0 1 32.432,677.146 L 144.649,634.631 A 380.000,380.000 0 0 0 148.295,643.886 Z" fill="#2400FF"/>
    <path d="M 145.837,637.726 L 33.996,681.219 A 500.000,500.000 0 0 1 29.412,668.958 L 142.353,628.408 A 380.000,380.000 0 0 0 145.837,637.726 Z" fill="#2800FF"/>
    <path d="M 143.487,631.524 L 30.904,673.059 A 500.000,500.000 0 0 1 26.535,660.720 L 140.167,622.147 A 380.000,380.000 0 0 0 143.487,631.524 Z" fill="#2C00FF"/>
    <path d="M 141.246,625.282 L 27.955,664.845 A 500.000,500.000 0 0 1 23.802,652.432 L 138.090,615.848 A 380.000,380.000 0 0 0 141.246,625.282 Z" fill="#3000FF"/>
    <path d="M 139.114,619.002 L 25.150,656.582 A 500.000,500.000 0 0 1 21.214,644.098 L 136.123,609.515 A 380.000,380.000 0 0 0 139.114,619.002 Z" fill="#3500FF"/>
    <path d="M 137.092,612.686 L 22.490,648.271 A 500.000,500.000 0 0 1 18.772,635.720 L 134.267,603.147 A 380.000,380.000 0 0 0 137.092,612.686 Z" fill="#3900FF"/>
    <path d="M 135.181,606.335 L 19.975,639.915 A 500.000,500.000 0 0 1 16.477,627.301 L 132.523,596.749 A 380.000,380.000 0 0 0 135.181,606.335 Z" fill="#3D00FF"/>
    <path d="M 133.381,599.952 L 17.606,631.516 A 500.000,500.000 0 0 1 14.329,618.843 L 130.890,590.321 A 380.000,380.000 0 0 0 133.381,599.952 Z" fill="#4100FF"/>
    <path d="M 131.692,593.538 L 15.385,623.077 A 500.000,500.000 0 0 1 12.329,610.349 L 129.370,583.865 A 380.000,380.000 0 0 0 131.692,593.538 Z" fill="#4600FF"/>
    <path d="M 130.116,587.096 L 13.310,614.600 A 500.000,500.000 0 0 1 10.477,601.821 L 127.963,577.384 A 380.000,380.000 0 0 0 130.116,587.096 Z" fill="#4A00FF"/>
    <path d="M 128.652,580.628 L 11.384,606.089 A 500.000,500.000 0 0 1 8.775,593.262 L 126.669,570.879 A 380.000,380.000 0 0 0 128.652,580.628 Z" fill="#4E00FF"/>
    <path d="M 127.302,574.134 L 9.607,597.545 A 500.000,500.000 0 0 1 7.222,584.675 L 125.489,564.353 A 380.000,380.000 0 0 0 127.302,574.134 Z" fill="#5200FF"/>
    <path d="M 126.065,567.619 L 7.980,588.972 A 500.000,500.000 0 0 1 5.819,576.062 L 124.423,557.807 A 380.000,380.000 0 0 0 126.065,567.619 Z" fill="#5700FF"/>
    <path d="M 124.941,561.082 L 6.502,580.371 A 500.000,500.000 0 0 1 4.567,567.425 L 123.471,551.243 A 380.000,380.000 0 0 0 124.941,561.082 Z" fill="#5B00FF"/>
    <path d="M 123.932,554.527 L 5.174,571.746 A 500.000,500.000 0 0 1 3.466,558.769 L 122.634,544.664 A 380.000,380.000 0 0 0 123.932,554.527 Z" fill="#5F00FF"/>
    <path d="M 123.038,547.956 L 3.998,563.099 A 500.000,500.000 0 0 1 2.516,550.094 L 121.912,538.071 A 380.000,380.000 0 0 0 123.038,547.956 Z" fill="#6300FF"/>
    <path d="M 122.259,541.369 L 2.972,554.433 A 500.000,500.000 0 0 1 1.717,541.404 L 121.305,531.467 A 380.000,380.000 0 0 0 122.259,541.369 Z" fill="#6800FF"/>
    <path d="M 121.594,534.771 L 2.098,545.751 A 500.000,500.000 0 0 1 1.071,532.702 L 120.814,524.853 A 380.000,380.000 0 0 0 121.594,534.771 Z" fill="#6C00FF"/>
    <path d="M 121.045,528.161 L 1.375,537.054 A 500.000,500.000 0 0 1 0.576,523.989 L 120.438,518.232 A 380.000,380.000 0 0 0 121.045,528.161 Z" fill="#7000FF"/>
    <path d="M 120.611,521.543 L 0.804,528.346 A 500.000,500.000 0 0 1 0.233,515.269 L 120.177,511.605 A 380.000,380.000 0 0 0 120.611,521.543 Z" fill="#7400FF"/>
    <path d="M 120.293,514.919 L 0.385,519.630 A 500.000,500.000 0 0 1 0.043,506.545 L 120.033,504.974 A 380.000,380.000 0 0 0 120.293,514.919 Z" fill="#7900FF"/>
    <path d="M 120.090,508.290 L 0.119,510.907 A 500.000,500.000 0 0 1 0.005,497.818 L 120.004,498.342 A 380.000,380.000 0 0 0 120.090,508.290 Z" fill="#7D00FF"/>
    <path d="M 120.004,501.658 L 0.005,502.182 A 500.000,500.000 0 0 1 0.119,489.093 L 120.090,491.710 A 380.000,380.000 0 0 0 120.004,501.658 Z" fill="#8100FF"/>
    <path d="M 120.033,495.026 L 0.043,493.455 A 500.000,500.000 0 0 1 0.385,480.370 L 120.293,485.081 A 380.000,380.000 0 0 0 120.033,495.026 Z" fill="#8500FF"/>
    <path d="M 120.177,488.395 L 0.233,484.731 A 500.000,500.000 0 0 1 0.804,471.654 L 120.611,478.457 A 380.000,380.000 0 0 0 120.177,488.395 Z" fill="#8A00FF"/>
    <path d="M 120.438,481.768 L 0.576,476.011 A 500.000,500.000 0 0 1 1.375,462.946 L 121.045,471.839 A 380.000,380.000 0 0 0 120.438,481.768 Z" fill="#8E00FF"/>
    <path d="M 120.814,475.147 L 1.071,467.298 A 500.000,500.000 0 0 1 2.098,454.249 L 121.594,465.229 A 380.000,380.000 0 0 0 120.814,475.147 Z" fill="#9200FF"/>
    <path d="M 121.305,468.533 L 1.717,458.596 A 500.000,500.000 0 0 1 2.972,445.567 L 122.259,458.631 A 380.000,380.000 0 0 0 121.305,468.533 Z" fill="#9600FF"/>
    <path d="M 121.912,461.929 L 2.516,449.906 A 500.000,500.000 0 0 1 3.998,436.901 L 123.038,452.044 A 380.000,380.000 0 0 0 121.912,461.929 Z" fill="#9B00FF"/>
    <path d="M 122.634,455.336 L 3.466,441.231 A 500.000,500.000 0 0 1 5.174,428.254 L 123.932,445.473 A 380.000,380.000 0 0 0 122.634,455.336 Z" fill="#9F00FF"/>
    <path d="M 123.471,448.757 L 4.567,432.575 A 500.000,500.000 0 0 1 6.502,419.629 L 124.941,438.918 A 380.000,380.000 0 0 0 123.471,448.757 Z" fill="#A300FF"/>
    <path d="M 124.423,442.193 L 5.819,423.938 A 500.000,500.000 0 0 1 7.980,411.028 L 126.065,432.381 A 380.000,380.000 0 0 0 124.423,442.193 Z" fill="#A700FF"/>
    <path d="M 125.489,435.647 L 7.222,415.325 A 500.000,500.000 0 0 1 9.607,402.455 L 127.302,425.866 A 380.000,380.000 0 0 0 125.489,435.647 Z" fill="#AC00FF"/>
    <path d="M 126.669,429.121 L 8.775,406.738 A 500.000,500.000 0 0 1 11.384,393.911 L 128.652,419.372 A 380.000,380.000 0 0 0 126.669,429.121 Z" fill="#B000FF"/>
    <path d="M 127.963,422.616 L 10.477,398.179 A 500.000,500.000 0 0 1 13.310,385.400 L 130.116,412.904 A 380.000,380.000 0 0 0 127.963,422.616 Z" fill="#B400FF"/>
    <path d="M 129.370,416.135 L 12.329,389.651 A 500.000,500.000 0 0 1 15.385,376.923 L 131.692,406.462 A 380.000,380.000 0 0 0 129.370,416.135 Z" fill="#B800FF"/>
    <path d="M 130.890,409.679 L 14.329,381.157 A 500.000,500.000 0 0 1 17.606,368.484 L 133.381,400.048 A 380.000,380.000 0 0 0 130.890,409.679 Z" fill="#BD00FF"/>
    <path d="M 132.523,403.251 L 16.477,372.699 A 500.000,500.000 0 0 1 19.975,360.085 L 135.181,393.665 A 380.000,380.000 0 0 0 132.523,403.251 Z" fill="#C100FF"/>
    <path d="M 134.267,396.853 L 18.772,364.280 A 500.000,500.000 0 0 1 22.490,351.729 L 137.092,387.314 A 380.000,380.000 0 0 0 134.267,396.853 Z" fill="#C500FF"/>
    <path d="M 136.123,390.485 L 21.214,355.902 A 500.000,500.000 0 0 1 25.150,343.418 L 139.114,380.998 A 380.000,380.000 0 0 0 136.123,390.485 Z" fill="#C900FF"/>
    <path d="M 138.090,384.152 L 23.802,347.568 A 500.000,500.000 0 0 1 27.955,335.155 L 141.246,374.718 A 380.000,380.000 0 0 0 138.090,384.152 Z" fill="#CE00FF"/>
    <path d="M 140.167,377.853 L 26.535,339.280 A 500.000,500.000 0 0 1 30.904,326.941 L 143.487,368.476 A 380.000,380.000 0 0 0 140.167,377.853 Z" fill="#D200FF"/>
    <path d="M 142.353,371.592 L 29.412,331.042 A 500.000,500.000 0 0 1 33.996,318.781 L 145.837,362.274 A 380.000,380.000 0 0 0 142.353,371.592 Z" fill="#D600FF"/>
    <path d="M 144.649,365.369 L 32.432,322.854 A 500.000,500.000 0 0 1 37.230,310.676 L 148.295,356.114 A 380.000,380.000 0 0 0 144.649,365.369 Z" fill="#DA00FF"/>
    <path d="M 147.052,359.188 L 35.595,314.721 A 500.000,500.000 0 0 1 40.604,302.628 L 150.859,349.997 A 380.000,380.000 0 0 0 147.052,359.188 Z" fill="#DF00FF"/>
    <path d="M 149.564,353.050 L 38.900,306.645 A 500.000,500.000 0 0 1 44.119,294.641 L 153.530,343.927 A 380.000,380.000 0 0 0 149.564,353.050 Z" fill="#E300FF"/>
    <path d="M 152.182,346.956 L 42.344,298.627 A 500.000,500.000 0 0 1 47.772,286.716 L 156.307,337.904 A 380.000,380.000 0 0 0 152.182,346.956 Z" fill="#E700FF"/>
    <path d="M 154.906,340.909 L 45.928,290.670 A 500.000,500.000 0 0 1 51.564,278.856 L 159.188,331.930 A 380.000,380.000 0 0 0 154.906,340.909 Z" fill="#EB00FF"/>
    <path d="M 157.735,334.911 L 49.651,282.777 A 500.000,500.000 0 0 1 55.491,271.063 L 162.173,326.008 A 380.000,380.000 0 0 0 157.735,334.911 Z" fill="#F000FF"/>
    <path d="M 160.668,328.963 L 53.511,274.951 A 500.000,500.000 0 0 1 59.555,263.340 L 165.262,320.139 A 380.000,380.000 0 0 0 160.668,328.963 Z" fill="#F400FF"/>
    <path d="M 163.705,323.066 L 57.506,267.193 A 500.000,500.000 0 0 1 63.752,255.689 L 168.452,314.324 A 380.000,380.000 0 0 0 163.705,323.066 Z" fill="#F800FF"/>
    <path d="M 166.844,317.224 L 61.637,259.506 A 500.000,500.000 0 0 1 68.082,248.113 L 171.743,308.566 A 380.000,380.000 0 0 0 166.844,317.224 Z" fill="#FC00FF"/>
    <path d="M 170.084,311.438 L 65.901,251.892 A 500.000,500.000 0 0 1 72.544,240.613 L 175.133,302.866 A 380.000,380.000 0 0 0 170.084,311.438 Z" fill="#FF00FC"/>
    <path d="M 173.426,305.709 L 70.297,244.353 A 500.000,500.000 0 0 1 77.136,233.193 L 178.623,297.226 A 380.000,380.000 0 0 0 173.426,305.709 Z" fill="#FF00F8"/>
    <path d="M 176.866,300.039 L 74.824,236.893 A 500.000,500.000 0 0 1 81.857,225.853 L 182.211,291.649 A 380.000,380.000 0 0 0 176.866,300.039 Z" fill="#FF00F4"/>
    <path d="M 180.405,294.430 L 79.480,229.513 A 500.000,500.000 0 0 1 86.705,218.598 L 185.896,286.134 A 380.000,380.000 0 0 0 180.405,294.430 Z" fill="#FF00F0"/>
    <path d="M 184.042,288.883 L 84.265,222.215 A 500.000,500.000 0 0 1 91.679,211.427 L 189.676,280.685 A 380.000,380.000 0 0 0 184.042,288.883 Z" fill="#FF00EB"/>
    <path d="M 187.774,283.401 L 89.177,215.002 A 500.000,500.000 0 0 1 96.778,204.345 L 193.551,275.302 A 380.000,380.000 0 0 0 187.774,283.401 Z" fill="#FF00E7"/>
    <path d="M 191.602,277.985 L 94.213,207.875 A 500.000,500.000 0 0 1 101.999,197.353 L 197.519,269.988 A 380.000,380.000 0 0 0 191.602,277.985 Z" fill="#FF00E3"/>
    <path d="M 195.524,272.637 L 99.373,200.838 A 500.000,500.000 0 0 1 107.342,190.453 L 201.580,264.744 A 380.000,380.000 0 0 0 195.524,272.637 Z" fill="#FF00DF"/>
    <path d="M 199.538,267.357 L 104.655,193.891 A 500.000,500.000 0 0 1 112.804,183.647 L 205.731,259.572 A 380.000,380.000 0 0 0 199.538,267.357 Z" fill="#FF00DA"/>
    <path d="M 203.644,262.149 L 110.058,187.038 A 500.000,500.000 0 0 1 118.384,176.938 L 209.972,254.473 A 380.000,380.000 0 0 0 203.644,262.149 Z" fill="#FF00D6"/>
    <path d="M 207.840,257.013 L 115.579,180.280 A 500.000,500.000 0 0 1 124.080,170.327 L 214.301,249.449 A 380.000,380.000 0 0 0 207.840,257.013 Z" fill="#FF00D2"/>
    <path d="M 212.125,251.951 L 121.218,173.620 A 500.000,500.000 0 0 1 129.891,163.817 L 218.717,244.501 A 380.000,380.000 0 0 0 212.125,251.951 Z" fill="#FF00CE"/>
    <path d="M 216.498,246.965 L 126.971,167.059 A 500.000,500.000 0 0 1 135.815,157.409 L 223.219,239.630 A 380.000,380.000 0 0 0 216.498,246.965 Z" fill="#FF00C9"/>
    <path d="M 220.957,242.056 L 132.839,160.600 A 500.000,500.000 0 0 1 141.849,151.105 L 227.805,234.840 A 380.000,380.000 0 0 0 220.957,242.056 Z" fill="#FF00C5"/>
    <path d="M 225.502,237.225 L 138.818,154.243 A 500.000,500.000 0 0 1 147.993,144.907 L 232.474,230.130 A 380.000,380.000 0 0 0 225.502,237.225 Z" fill="#FF00C1"/>
    <path d="M 230.130,232.474 L 144.907,147.993 A 500.000,500.000 0 0 1 154.243,138.818 L 237.225,225.502 A 380.000,380.000 0 0 0 230.130,232.474 Z" fill="#FF00BD"/>
    <path d="M 234.840,227.805 L 151.105,141.849 A 500.000,500.000 0 0 1 160.600,132.839 L 242.056,220.957 A 380.000,380.000 0 0 0 234.840,227.805 Z" fill="#FF00B8"/>
    <path d="M 239.630,223.219 L 157.409,135.815 A 500.000,500.000 0 0 1 167.059,126.971 L 246.965,216.498 A 380.000,380.000 0 0 0 239.630,223.219 Z" fill="#FF00B4"/>
    <path d="M 244.501,218.717 L 163.817,129.891 A 500.000,500.000 0 0 1 173.620,121.218 L 251.951,212.125 A 380.000,380.000 0 0 0 244.501,218.717 Z" fill="#FF00B0"/>
    <path d="M 249.449,214.301 L 170.327,124.080 A 500.000,500.000 0 0 1 180.280,115.579 L 257.013,207.840 A 380.000,380.000 0 0 0 249.449,214.301 Z" fill="#FF00AC"/>
    <path d="M 254.473,209.972 L 176.938,118.384 A 500.000,500.000 0 0 1 187.038,110.058 L 262.149,203.644 A 380.000,380.000 0 0 0 254.473,209.972 Z" fill="#FF00A7"/>
    <path d="M 259.572,205.731 L 183.647,112.804 A 500.000,500.000 0 0 1 193.891,104.655 L 267.357,199.538 A 380.000,380.000 0 0 0 259.572,205.731 Z" fill="#FF00A3"/>
    <path d="M 264.744,201.580 L 190.453,107.342 A 500.000,500.000 0 0 1 200.838,99.373 L 272.637,195.524 A 380.000,380.000 0 0 0 264.744,201.580 Z" fill="#FF009F"/>
    <path d="M 269.988,197.519 L 197.353,101.999 A 500.000,500.000 0 0 1 207.875,94.213 L 277.985,191.602 A 380.000,380.000 0 0 0 269.988,197.519 Z" fill="#FF009B"/>
    <path d="M 275.302,193.551 L 204.345,96.778 A 500.000,500.000 0 0 1 215.002,89.177 L 283.401,187.774 A 380.000,380.000 0 0 0 275.302,193.551 Z" fill="#FF0096"/>
    <path d="M 280.685,189.676 L 211.427,91.679 A 500.000,500.000 0 0 1 222.215,84.265 L 288.883,184.042 A 380.000,380.000 0 0 0 280.685,189.676 Z" fill="#FF0092"/>
    <path d="M 286.134,185.896 L 218.598,86.705 A 500.000,500.000 0 0 1 229.513,79.480 L 294.430,180.405 A 380.000,380.000 0 0 0 286.134,185.896 Z" fill="#FF008E"/>
    <path d="M 291.649,182.211 L 225.853,81.857 A 500.000,500.000 0 0 1 236.893,74.824 L 300.039,176.866 A 380.000,380.000 0 0 0 291.649,182.211 Z" fill="#FF008A"/>
    <path d="M 297.226,178.623 L 233.193,77.136 A 500.000,500.000 0 0 1 244.353,70.297 L 305.709,173.426 A 380.000,380.000 0 0 0 297.226,178.623 Z" fill="#FF0085"/>
    <path d="M 302.866,175.133 L 240.613,72.544 A 500.000,500.000 0 0 1 251.892,65.901 L 311.438,170.084 A 380.000,380.000 0 0 0 302.866,175.133 Z" fill="#FF0081"/>
    <path d="M 308.566,171.743 L 248.113,68.082 A 500.000,500.000 0 0 1 259.506,61.637 L 317.224,166.844 A 380.000,380.000 0 0 0 308.566,171.743 Z" fill="#FF007D"/>
    <path d="M 314.324,168.452 L 255.689,63.752 A 500.000,500.000 0 0 1 267.193,57.506 L 323.066,163.705 A 380.000,380.000 0 0 0 314.324,168.452 Z" fill="#FF0079"/>
    <path d="M 320.139,165.262 L 263.340,59.555 A 500.000,500.000 0 0 1 274.951,53.511 L 328.963,160.668 A 380.000,380.000 0 0 0 320.139,165.262 Z" fill="#FF0074"/>
    <path d="M 326.008,162.173 L 271.063,55.491 A 500.000,500.000 0 0 1 282.777,49.651 L 334.911,157.735 A 380.000,380.000 0 0 0 326.008,162.173 Z" fill="#FF0070"/>
    <path d="M 331.930,159.188 L 278.856,51.564 A 500.000,500.000 0 0 1 290.670,45.928 L 340.909,154.906 A 380.000,380.000 0 0 0 331.930,159.188 Z" fill="#FF006C"/>
    <path d="M 337.904,156.307 L 286.716,47.772 A 500.000,500.000 0 0 1 298.627,42.344 L 346.956,152.182 A 380.000,380.000 0 0 0 337.904,156.307 Z" fill="#FF0068"/>
    <path d="M 343.927,153.530 L 294.641,44.119 A 500.000,500.000 0 0 1 306.645,38.900 L 353.050,149.564 A 380.000,380.000 0 0 0 343.927,153.530 Z" fill="#FF0063"/>
    <path d="M 349.997,150.859 L 302.628,40.604 A 500.000,500.000 0 0 1 314.721,35.595 L 359.188,147.052 A 380.000,380.000 0 0 0 349.997,150.859 Z" fill="#FF005F"/>
    <path d="M 356.114,148.295 L 310.676,37.230 A 500.000,500.000 0 0 1 322.854,32.432 L 365.369,144.649 A 380.000,380.000 0 0 0 356.114,148.295 Z" fill="#FF005B"/>
    <path d="M 362.274,145.837 L 318.781,33.996 A 500.000,500.000 0 0 1 331.042,29.412 L 371.592,142.353 A 380.000,380.000 0 0 0 362.274,145.837 Z" fill="#FF0057"/>
    <path d="M 368.476,143.487 L 326.941,30.904 A 500.000,500.000 0 0 1 339.280,26.535 L 377.853,140.167 A 380.000,380.000 0 0 0 368.476,143.487 Z" fill="#FF0052"/>
    <path d="M 374.718,141.246 L 335.155,27.955 A 500.000,500.000 0 0 1 347.568,23.802 L 384.152,138.090 A 380.000,380.000 0 0 0 374.718,141.246 Z" fill="#FF004E"/>
    <path d="M 380.998,139.114 L 343.418,25.150 A 500.000,500.000 0 0 1 355.902,21.214 L 390.485,136.123 A 380.000,380.000 0 0 0 380.998,139.114 Z" fill="#FF004A"/>
    <path d="M 387.314,137.092 L 351.729,22.490 A 500.000,500.000 0 0 1 364.280,18.772 L 396.853,134.267 A 380.000,380.000 0 0 0 387.314,137.092 Z" fill="#FF0046"/>
    <path d="M 393.665,135.181 L 360.085,19.975 A 500.000,500.000 0 0 1 372.699,16.477 L 403.251,132.523 A 380.000,380.000 0 0 0 393.665,135.181 Z" fill="#FF0041"/>
    <path d="M 400.048,133.381 L 368.484,17.606 A 500.000,500.000 0 0 1 381.157,14.329 L 409.679,130.890 A 380.000,380.000 0 0 0 400.048,133.381 Z" fill="#FF003D"/>
    <path d="M 406.462,131.692 L 376.923,15.385 A 500.000,500.000 0 0 1 389.651,12.329 L 416.135,129.370 A 380.000,380.000 0 0 0 406.462,131.692 Z" fill="#FF0039"/>
    <path d="M 412.904,130.116 L 385.400,13.310 A 500.000,500.000 0 0 1 398.179,10.477 L 422.616,127.963 A 380.000,380.000 0 0 0 412.904,130.116 Z" fill="#FF0035"/>
    <path d="M 419.372,128.652 L 393.911,11.384 A 500.000,500.000 0 0 1 406.738,8.775 L 429.121,126.669 A 380.000,380.000 0 0 0 419.372,128.652 Z" fill="#FF0030"/>
    <path d="M 425.866,127.302 L 402.455,9.607 A 500.000,500.000 0 0 1 415.325,7.222 L 435.647,125.489 A 380.000,380.000 0 0 0 425.866,127.302 Z" fill="#FF002C"/>
    <path d="M 432.381,126.065 L 411.028,7.980 A 500.000,500.000 0 0 1 423.938,5.819 L 442.193,124.423 A 380.000,380.000 0 0 0 432.381,126.065 Z" fill="#FF0028"/>
    <path d="M 438.918,124.941 L 419.629,6.502 A 500.000,500.000 0 0 1 432.575,4.567 L 448.757,123.471 A 380.000,380.000 0 0 0 438.918,124.941 Z" fill="#FF0024"/>
    <path d="M 445.473,123.932 L 428.254,5.174 A 500.000,500.000 0 0 1 441.231,3.466 L 455.336,122.634 A 380.000,380.000 0 0 0 445.473,123.932 Z" fill="#FF001F"/>
    <path d="M 452.044,123.038 L 436.901,3.998 A 500.000,500.000 0 0 1 449.906,2.516 L 461.929,121.912 A 380.000,380.000 0 0 0 452.044,123.038 Z" fill="#FF001B"/>
    <path d="M 458.631,122.259 L 445.567,2.972 A 500.000,500.000 0 0 1 458.596,1.717 L 468.533,121.305 A 380.000,380.000 0 0 0 458.631,122.259 Z" fill="#FF0017"/>
    <path d="M 465.229,121.594 L 454.249,2.098 A 500.000,500.000 0 0 1 467.298,1.071 L 475.147,120.814 A 380.000,380.000 0 0 0 465.229,121.594 Z" fill="#FF0013"/>
    <path d="M 471.839,121.045 L 462.946,1.375 A 500.000,500.000 0 0 1 476.011,0.576 L 481.768,120.438 A 380.000,380.000 0 0 0 471.839,121.045 Z" fill="#FF000E"/>
    <path d="M 478.457,120.611 L 471.654,0.804 A 500.000,500.000 0 0 1 484.731,0.233 L 488.395,120.177 A 380.000,380.000 0 0 0 478.457,120.611 Z" fill="#FF000A"/>
    <path d="M 485.081,120.293 L 480.370,0.385 A 500.000,500.000 0 0 1 493.455,0.043 L 495.026,120.033 A 380.000,380.000 0 0 0 485.081,120.293 Z" fill="#FF0006"/>
    <path d="M 491.710,120.090 L 489.093,0.119 A 500.000,500.000 0 0 1 502.182,0.005 L 501.658,120.004 A 380.000,380.000 0 0 0 491.710,120.090 Z" fill="#FF0002"/>
  </g>
</svg>
